<svg width="31" height="7" viewBox="0 0 31 7" fill="none" xmlns="http://www.w3.org/2000/svg">
<path d="M8.59143 1.47887C8.59143 1.15023 8.69476 0.870891 8.90143 0.640844C9.1081 0.410797 9.35905 0.295774 9.65429 0.295774L29.9371 0.295775C30.2324 0.295775 30.4833 0.410798 30.69 0.640845C30.8967 0.870892 31 1.15024 31 1.47887L31 5.47183C31 5.83333 30.8967 6.11268 30.69 6.30986C30.5129 6.53991 30.2619 6.65493 29.9371 6.65493L9.65429 6.65493C9.35905 6.65493 9.10809 6.53991 8.90143 6.30986C8.69476 6.11268 8.59143 5.83333 8.59143 5.47183L8.59143 1.47887ZM-5.17149e-08 1.1831C-3.73497e-08 0.854459 0.103332 0.575116 0.309999 0.345069C0.516664 0.115022 0.76762 -1.3215e-06 1.06286 -1.30859e-06L5.18143 -1.12857e-06C5.50619 -1.11437e-06 5.7719 0.115022 5.97857 0.345069C6.18524 0.575117 6.28857 0.854459 6.28857 1.1831L6.28857 5.76761C6.28857 6.12911 6.18524 6.42488 5.97857 6.65493C5.7719 6.88498 5.50619 7 5.18143 7L1.06286 7C0.76762 7 0.516664 6.88498 0.309999 6.65493C0.103332 6.42488 -2.67912e-07 6.12911 -2.5211e-07 5.7676L-5.17149e-08 1.1831Z" fill="#EC4E20"/>
</svg>
