<svg width="19" height="19" viewBox="0 0 19 19" fill="none" xmlns="http://www.w3.org/2000/svg">
<path d="M17.2758 5.88287C17.1277 5.66913 16.8847 5.54167 16.625 5.54167H5.80533L4.89175 3.34875C4.64475 2.75658 4.07158 2.375 3.43033 2.375H1.58337V3.95833H3.43033L7.186 12.9715C7.30871 13.266 7.59687 13.4583 7.91671 13.4583H14.25C14.5802 13.4583 14.8755 13.2533 14.9918 12.9453L17.3668 6.612C17.4579 6.36817 17.4238 6.09583 17.2758 5.88287ZM13.7014 11.875H8.44475L6.46558 7.125H15.4827L13.7014 11.875Z" fill="#B9B9B9"/>
<path d="M8.3125 16.625C8.96834 16.625 9.5 16.0933 9.5 15.4375C9.5 14.7817 8.96834 14.25 8.3125 14.25C7.65666 14.25 7.125 14.7817 7.125 15.4375C7.125 16.0933 7.65666 16.625 8.3125 16.625Z" fill="#B9B9B9"/>
<path d="M13.8541 16.625C14.51 16.625 15.0416 16.0933 15.0416 15.4375C15.0416 14.7817 14.51 14.25 13.8541 14.25C13.1983 14.25 12.6666 14.7817 12.6666 15.4375C12.6666 16.0933 13.1983 16.625 13.8541 16.625Z" fill="#B9B9B9"/>
</svg>
