<svg width="19" height="19" viewBox="0 0 19 19" fill="none" xmlns="http://www.w3.org/2000/svg">
<path d="M9.50004 1.58334C5.13479 1.58334 1.58337 5.13476 1.58337 9.50001C1.58337 13.8653 5.13479 17.4167 9.50004 17.4167C13.8653 17.4167 17.4167 13.8653 17.4167 9.50001C17.4167 5.13476 13.8653 1.58334 9.50004 1.58334ZM9.50004 15.8333C6.008 15.8333 3.16671 12.9921 3.16671 9.50001C3.16671 6.00797 6.008 3.16668 9.50004 3.16668C12.9921 3.16668 15.8334 6.00797 15.8334 9.50001C15.8334 12.9921 12.9921 15.8333 9.50004 15.8333Z" fill="#FF9505"/>
<path d="M10.2917 5.54166H8.70837V9.82774L11.3153 12.4347L12.4347 11.3153L10.2917 9.17224V5.54166Z" fill="#FF9505"/>
</svg>
