<svg width="19" height="19" viewBox="0 0 19 19" fill="none" xmlns="http://www.w3.org/2000/svg">
<path d="M9.50004 11.0833C11.2465 11.0833 12.6667 9.66308 12.6667 7.91667C12.6667 6.17025 11.2465 4.75 9.50004 4.75C7.75362 4.75 6.33337 6.17025 6.33337 7.91667C6.33337 9.66308 7.75362 11.0833 9.50004 11.0833ZM9.50004 6.33333C10.3732 6.33333 11.0834 7.04346 11.0834 7.91667C11.0834 8.78988 10.3732 9.5 9.50004 9.5C8.62683 9.5 7.91671 8.78988 7.91671 7.91667C7.91671 7.04346 8.62683 6.33333 9.50004 6.33333Z" fill="#FF9505"/>
<path d="M9.04086 17.2694C9.17861 17.3676 9.33932 17.4167 9.50003 17.4167C9.66074 17.4167 9.82145 17.3676 9.9592 17.2694C10.1999 17.0992 15.8563 13.015 15.8334 7.91668C15.8334 4.42464 12.9921 1.58334 9.50003 1.58334C6.00799 1.58334 3.1667 4.42464 3.1667 7.91272C3.14374 13.015 8.8002 17.0992 9.04086 17.2694ZM9.50003 3.16668C12.1197 3.16668 14.25 5.29705 14.25 7.92064C14.2667 11.4341 10.7762 14.5888 9.50003 15.6236C8.22465 14.5881 4.7334 11.4325 4.75003 7.91668C4.75003 5.29705 6.8804 3.16668 9.50003 3.16668Z" fill="#FF9505"/>
</svg>
