<svg width="60" height="60" viewBox="0 0 60 60" fill="none" xmlns="http://www.w3.org/2000/svg">
<path d="M49.9125 21.3025C49.97 20.8675 50 20.4325 50 20C50 14.0525 44.6425 9.28 38.6975 10.0875C36.965 7.005 33.665 5 30 5C26.335 5 23.035 7.005 21.3025 10.0875C15.345 9.28 10 14.0525 10 20C10 20.4325 10.03 20.8675 10.0875 21.3025C7.005 23.0375 5 26.3375 5 30C5 33.6625 7.005 36.9625 10.0875 38.6975C10.03 39.1325 10 39.5675 10 40C10 45.9475 15.345 50.7075 21.3025 49.9125C23.035 52.995 26.335 55 30 55C33.665 55 36.965 52.995 38.6975 49.9125C44.6425 50.7075 50 45.9475 50 40C50 39.5675 49.97 39.1325 49.9125 38.6975C52.995 36.9625 55 33.6625 55 30C55 26.3375 52.995 23.0375 49.9125 21.3025Z" fill="#FF9505"/>
<path d="M16.5921 34C16.5201 34 16.4561 33.976 16.4001 33.928C16.3521 33.872 16.3281 33.808 16.3281 33.736C16.3281 33.688 16.3401 33.644 16.3641 33.604L18.8841 29.704L16.6161 25.996C16.5921 25.948 16.5801 25.904 16.5801 25.864C16.5801 25.792 16.6041 25.732 16.6521 25.684C16.7081 25.628 16.7721 25.6 16.8441 25.6H19.4481C19.6721 25.6 19.8401 25.7 19.9521 25.9L20.7921 27.364L21.7041 25.9C21.8161 25.7 21.9841 25.6 22.2081 25.6H24.6921C24.7641 25.6 24.8241 25.628 24.8721 25.684C24.9281 25.732 24.9561 25.792 24.9561 25.864C24.9561 25.912 24.9441 25.956 24.9201 25.996L22.6041 29.668L25.1601 33.604C25.1841 33.644 25.1961 33.688 25.1961 33.736C25.1961 33.808 25.1681 33.872 25.1121 33.928C25.0641 33.976 25.0041 34 24.9321 34H22.2321C22.0161 34 21.8521 33.908 21.7401 33.724L20.6961 32.116L19.7001 33.724C19.5881 33.908 19.4241 34 19.2081 34H16.5921ZM26.1832 34C26.0952 34 26.0192 33.968 25.9552 33.904C25.8912 33.84 25.8592 33.764 25.8592 33.676V25.924C25.8592 25.836 25.8912 25.76 25.9552 25.696C26.0192 25.632 26.0952 25.6 26.1832 25.6H28.5352C28.6232 25.6 28.6992 25.632 28.7632 25.696C28.8272 25.76 28.8592 25.836 28.8592 25.924V29.56L31.3672 25.876C31.4792 25.692 31.6432 25.6 31.8592 25.6H33.9352C34.0232 25.6 34.0992 25.632 34.1632 25.696C34.2272 25.76 34.2592 25.836 34.2592 25.924V33.676C34.2592 33.764 34.2272 33.84 34.1632 33.904C34.0992 33.968 34.0232 34 33.9352 34H31.5832C31.4952 34 31.4192 33.968 31.3552 33.904C31.2912 33.84 31.2592 33.764 31.2592 33.676V30.304L28.7512 33.724C28.6952 33.812 28.6312 33.88 28.5592 33.928C28.4872 33.976 28.3872 34 28.2592 34H26.1832ZM37.7581 34C37.6701 34 37.5941 33.968 37.5301 33.904C37.4661 33.84 37.4341 33.764 37.4341 33.676V28.18H35.4421C35.3541 28.18 35.2781 28.148 35.2141 28.084C35.1501 28.02 35.1181 27.944 35.1181 27.856V25.924C35.1181 25.836 35.1501 25.76 35.2141 25.696C35.2781 25.632 35.3541 25.6 35.4421 25.6H42.4741C42.5621 25.6 42.6381 25.632 42.7021 25.696C42.7661 25.76 42.7981 25.836 42.7981 25.924V27.856C42.7981 27.944 42.7661 28.02 42.7021 28.084C42.6381 28.148 42.5621 28.18 42.4741 28.18H40.4821V33.676C40.4821 33.764 40.4501 33.84 40.3861 33.904C40.3221 33.968 40.2461 34 40.1581 34H37.7581Z" fill="white"/>
</svg>
