<svg width="20" height="20" viewBox="0 0 20 20" fill="none" xmlns="http://www.w3.org/2000/svg">
<path d="M12.9717 9.18413C14.7375 8.14246 15.8334 6.21996 15.8334 4.16663V3.33329H16.6667V1.66663H15.8334H4.16671H3.33337V3.33329H4.16671V4.16663C4.16671 6.21996 5.26254 8.14246 7.02837 9.18413C7.32337 9.35746 7.50004 9.63829 7.50004 9.93413V10.0658C7.50004 10.3608 7.32337 10.6408 7.02837 10.8158C5.26254 11.8575 4.16671 13.78 4.16671 15.8333V16.6666H3.33337V18.3333H4.16671H15.8334H16.6667V16.6666H15.8334V15.8333C15.8334 13.78 14.7375 11.8575 12.9725 10.8166C12.6767 10.6416 12.5 10.3608 12.5 10.0658V9.93413C12.5 9.63829 12.6767 9.35746 12.9717 9.18413ZM14.1667 15.8333V16.6666H5.83337V15.8333C5.83337 14.3666 6.61504 12.995 7.87504 12.2508C8.44254 11.9166 8.83587 11.4091 9.02837 10.8333H10.9717C11.1634 11.4091 11.5584 11.9166 12.1259 12.2516C13.385 12.995 14.1667 14.3666 14.1667 15.8333Z" fill="#FF9505"/>
</svg>
