<svg width="28" height="28" viewBox="0 0 28 28" fill="none" xmlns="http://www.w3.org/2000/svg">
<path d="M22.3394 9.29934C21.9205 8.6005 21.154 8.1665 20.3397 8.1665H17.5V5.83317C17.5 5.188 16.9785 4.6665 16.3334 4.6665H4.66671C3.37987 4.6665 2.33337 5.713 2.33337 6.99984V18.6665C2.33337 19.5368 2.81871 20.2893 3.52687 20.6895C3.67037 22.8117 5.42504 24.4998 7.58337 24.4998C9.63554 24.4998 11.3214 22.9727 11.6072 20.9998H15.2262C15.512 22.9727 17.1979 24.4998 19.25 24.4998C21.3022 24.4998 22.988 22.9727 23.2739 20.9998H23.3334C24.6202 20.9998 25.6667 19.9533 25.6667 18.6665V15.1665C25.6667 14.9542 25.6095 14.7477 25.4999 14.5657L22.3394 9.29934ZM17.5 10.4998H20.3397L22.4397 13.9998H17.5V10.4998ZM7.58337 22.1665C6.61854 22.1665 5.83337 21.3813 5.83337 20.4165C5.83337 19.4517 6.61854 18.6665 7.58337 18.6665C8.54821 18.6665 9.33337 19.4517 9.33337 20.4165C9.33337 21.3813 8.54821 22.1665 7.58337 22.1665ZM19.25 22.1665C18.2852 22.1665 17.5 21.3813 17.5 20.4165C17.5 19.4517 18.2852 18.6665 19.25 18.6665C20.2149 18.6665 21 19.4517 21 20.4165C21 21.3813 20.2149 22.1665 19.25 22.1665Z" fill="#B9B9B9"/>
</svg>
