<svg width="15" height="15" viewBox="0 0 15 15" fill="none" xmlns="http://www.w3.org/2000/svg">
<path d="M5.91667 0.375H1.16667C0.729667 0.375 0.375 0.729667 0.375 1.16667V5.91667C0.375 6.35367 0.729667 6.70833 1.16667 6.70833H5.91667C6.35367 6.70833 6.70833 6.35367 6.70833 5.91667V1.16667C6.70833 0.729667 6.35367 0.375 5.91667 0.375ZM5.125 5.125H1.95833V1.95833H5.125V5.125ZM9.08333 6.70833H13.8333C14.2711 6.70833 14.625 6.35367 14.625 5.91667V1.16667C14.625 0.729667 14.2711 0.375 13.8333 0.375H9.08333C8.64554 0.375 8.29167 0.729667 8.29167 1.16667V5.91667C8.29167 6.35367 8.64554 6.70833 9.08333 6.70833ZM9.875 1.95833H13.0417V5.125H9.875V1.95833ZM0.375 13.8333C0.375 14.2703 0.729667 14.625 1.16667 14.625H5.91667C6.35367 14.625 6.70833 14.2703 6.70833 13.8333V9.08333C6.70833 8.64633 6.35367 8.29167 5.91667 8.29167H1.16667C0.729667 8.29167 0.375 8.64633 0.375 9.08333V13.8333ZM1.95833 9.875H5.125V13.0417H1.95833V9.875ZM8.29167 13.8333C8.29167 14.2703 8.64554 14.625 9.08333 14.625H13.8333C14.2711 14.625 14.625 14.2703 14.625 13.8333V9.08333C14.625 8.64633 14.2711 8.29167 13.8333 8.29167H9.08333C8.64554 8.29167 8.29167 8.64633 8.29167 9.08333V13.8333ZM9.875 9.875H13.0417V13.0417H9.875V9.875Z" fill="#353531"/>
</svg>
