<svg width="120" height="19" viewBox="0 0 120 19" fill="none" xmlns="http://www.w3.org/2000/svg">
<path d="M5.7916 18.7361C5.62225 18.7361 5.46984 18.6745 5.33437 18.5514C5.21582 18.4107 5.15655 18.2523 5.15655 18.0764V4.40694H0.635044C0.465699 4.40694 0.313288 4.34537 0.177812 4.22222C0.0592707 4.08148 0 3.92315 0 3.74722V0.923612C0 0.730093 0.0592707 0.571759 0.177812 0.448612C0.313288 0.325463 0.465699 0.263889 0.635044 0.263889H14.3012C14.4875 0.263889 14.6399 0.325463 14.7584 0.448612C14.877 0.571759 14.9362 0.730093 14.9362 0.923612V3.74722C14.9362 3.94074 14.877 4.09907 14.7584 4.22222C14.6399 4.34537 14.4875 4.40694 14.3012 4.40694H9.77967V18.0764C9.77967 18.2523 9.7204 18.4107 9.60186 18.5514C9.48332 18.6745 9.33091 18.7361 9.14463 18.7361H5.7916Z" fill="black"/>
<path d="M17.8799 18.7361C17.7105 18.7361 17.5581 18.6745 17.4226 18.5514C17.3041 18.4107 17.2448 18.2523 17.2448 18.0764V0.923612C17.2448 0.730093 17.3041 0.571759 17.4226 0.448612C17.5581 0.325463 17.7105 0.263889 17.8799 0.263889H29.7425C29.9287 0.263889 30.0812 0.325463 30.1997 0.448612C30.3182 0.571759 30.3775 0.730093 30.3775 0.923612V3.40417C30.3775 3.58009 30.3182 3.73843 30.1997 3.87917C30.0812 4.00231 29.9287 4.06389 29.7425 4.06389H21.6393V7.62639H29.1836C29.3699 7.62639 29.5223 7.69676 29.6409 7.8375C29.7594 7.96065 29.8187 8.11898 29.8187 8.3125V10.6083C29.8187 10.7843 29.7594 10.9426 29.6409 11.0833C29.5223 11.2065 29.3699 11.2681 29.1836 11.2681H21.6393V14.9361H29.9457C30.132 14.9361 30.2844 14.9977 30.4029 15.1208C30.5214 15.244 30.5807 15.4023 30.5807 15.5958V18.0764C30.5807 18.2523 30.5214 18.4107 30.4029 18.5514C30.2844 18.6745 30.132 18.7361 29.9457 18.7361H17.8799Z" fill="black"/>
<path d="M34.1032 18.7361C33.9339 18.7361 33.7815 18.6745 33.646 18.5514C33.5275 18.4107 33.4682 18.2523 33.4682 18.0764V0.923612C33.4682 0.730093 33.5275 0.571759 33.646 0.448612C33.7815 0.325463 33.9339 0.263889 34.1032 0.263889H41.2157C43.3833 0.263889 45.0852 0.78287 46.3215 1.82083C47.5746 2.8588 48.2012 4.37176 48.2012 6.35972C48.2012 8.33009 47.5831 9.81667 46.3469 10.8194C45.1106 11.8046 43.4003 12.2972 41.2157 12.2972H38.1929V18.0764C38.1929 18.2699 38.1252 18.4282 37.9897 18.5514C37.8712 18.6745 37.7187 18.7361 37.5325 18.7361H34.1032ZM41.0887 8.65556C41.8338 8.65556 42.4181 8.46204 42.8414 8.075C43.2648 7.67037 43.4765 7.08102 43.4765 6.30694C43.4765 5.58565 43.2733 5.01389 42.8668 4.59167C42.4773 4.15185 41.8846 3.93194 41.0887 3.93194H38.1167V8.65556H41.0887Z" fill="black"/>
<path d="M51.2692 18.7361C51.0999 18.7361 50.9475 18.6745 50.812 18.5514C50.6935 18.4107 50.6342 18.2523 50.6342 18.0764V0.923612C50.6342 0.730093 50.6935 0.571759 50.812 0.448612C50.9475 0.325463 51.0999 0.263889 51.2692 0.263889H58.3817C60.5494 0.263889 62.2513 0.78287 63.4875 1.82083C64.7406 2.8588 65.3672 4.37176 65.3672 6.35972C65.3672 8.33009 64.7491 9.81667 63.5129 10.8194C62.2767 11.8046 60.5663 12.2972 58.3817 12.2972H55.3589V18.0764C55.3589 18.2699 55.2912 18.4282 55.1557 18.5514C55.0372 18.6745 54.8848 18.7361 54.6985 18.7361H51.2692ZM58.2547 8.65556C58.9998 8.65556 59.5841 8.46204 60.0074 8.075C60.4308 7.67037 60.6425 7.08102 60.6425 6.30694C60.6425 5.58565 60.4393 5.01389 60.0328 4.59167C59.6434 4.15185 59.0506 3.93194 58.2547 3.93194H55.2827V8.65556H58.2547Z" fill="black"/>
<path d="M66.7842 18.7361C66.6487 18.7361 66.5217 18.6833 66.4031 18.5778C66.3015 18.4546 66.2507 18.3227 66.2507 18.1819C66.2507 18.0764 66.2592 17.9972 66.2761 17.9444L72.2455 1.00278C72.2963 0.791667 72.4064 0.615741 72.5758 0.475C72.7451 0.334259 72.9652 0.263889 73.2362 0.263889H76.9957C77.2666 0.263889 77.4868 0.334259 77.6561 0.475C77.8254 0.615741 77.9355 0.791667 77.9863 1.00278L83.9303 17.9444L83.9811 18.1819C83.9811 18.3227 83.9219 18.4546 83.8033 18.5778C83.7017 18.6833 83.5747 18.7361 83.4223 18.7361H80.2979C79.8915 18.7361 79.6205 18.5514 79.485 18.1819L78.4944 15.4903H71.7121L70.7468 18.1819C70.6114 18.5514 70.3319 18.7361 69.9086 18.7361H66.7842ZM77.4783 11.6903L75.1159 4.72361L72.7536 11.6903H77.4783Z" fill="black"/>
<path d="M93.2736 19C90.852 19 88.9553 18.3931 87.5836 17.1792C86.2289 15.9477 85.5091 14.1708 85.4245 11.8486C85.4075 11.3736 85.3991 10.5995 85.3991 9.52639C85.3991 8.43565 85.4075 7.64398 85.4245 7.15139C85.5091 4.86435 86.2458 3.10509 87.6344 1.87361C89.023 0.624537 90.9028 0 93.2736 0C94.7638 0 96.1017 0.263889 97.2871 0.791667C98.4725 1.30185 99.4039 2.04074 100.081 3.00833C100.776 3.95833 101.131 5.07546 101.148 6.35972V6.4125C101.148 6.55324 101.089 6.67639 100.97 6.78195C100.869 6.86991 100.75 6.91389 100.615 6.91389H97.1855C96.9653 6.91389 96.796 6.86991 96.6774 6.78195C96.5589 6.67639 96.4573 6.49167 96.3726 6.22778C96.1355 5.33056 95.763 4.70602 95.2549 4.35417C94.7469 3.98472 94.078 3.8 93.2482 3.8C91.2499 3.8 90.2169 4.96111 90.1492 7.28333C90.1323 7.75833 90.1238 8.48843 90.1238 9.47361C90.1238 10.4588 90.1323 11.2065 90.1492 11.7167C90.2169 14.0389 91.2499 15.2 93.2482 15.2C94.078 15.2 94.7554 15.0153 95.2803 14.6458C95.8053 14.2588 96.1694 13.6343 96.3726 12.7722C96.4404 12.5083 96.5335 12.3324 96.652 12.2444C96.7706 12.1389 96.9484 12.0861 97.1855 12.0861H100.615C100.767 12.0861 100.894 12.1389 100.996 12.2444C101.114 12.35 101.165 12.4819 101.148 12.6403C101.131 13.9245 100.776 15.0505 100.081 16.0181C99.4039 16.9681 98.4725 17.7069 97.2871 18.2347C96.1017 18.7449 94.7638 19 93.2736 19Z" fill="black"/>
<path d="M102.803 18.7361C102.668 18.7361 102.541 18.6833 102.422 18.5778C102.32 18.4546 102.27 18.3227 102.27 18.1819C102.27 18.0764 102.278 17.9972 102.295 17.9444L108.264 1.00278C108.315 0.791667 108.425 0.615741 108.595 0.475C108.764 0.334259 108.984 0.263889 109.255 0.263889H113.015C113.285 0.263889 113.506 0.334259 113.675 0.475C113.844 0.615741 113.954 0.791667 114.005 1.00278L119.949 17.9444L120 18.1819C120 18.3227 119.941 18.4546 119.822 18.5778C119.721 18.6833 119.594 18.7361 119.441 18.7361H116.317C115.91 18.7361 115.639 18.5514 115.504 18.1819L114.513 15.4903H107.731L106.766 18.1819C106.63 18.5514 106.351 18.7361 105.927 18.7361H102.803ZM113.497 11.6903L111.135 4.72361L108.772 11.6903H113.497Z" fill="black"/>
</svg>
